<mxfile host="app.diagrams.net" modified="2020-08-09T06:54:37.375Z" agent="5.0 (Macintosh; Intel Mac OS X 10_15_5) AppleWebKit/537.36 (KHTML, like Gecko) Chrome/84.0.4147.105 Safari/537.36" etag="3pKwc2LAQ0VNuaVBpIVO" version="13.5.8" type="github">
  <diagram id="Qftj_Ea1jsQ4KlAfb1fA" name="Page-1">
    <mxGraphModel dx="2066" dy="1105" grid="1" gridSize="10" guides="1" tooltips="1" connect="1" arrows="1" fold="1" page="1" pageScale="1" pageWidth="827" pageHeight="1169" math="0" shadow="0">
      <root>
        <mxCell id="0" />
        <mxCell id="1" parent="0" />
        <mxCell id="xHG6-vlVzaJoteajogRv-1" value="&lt;h1&gt;Program 0&lt;/h1&gt;&lt;p&gt;{&lt;/p&gt;&lt;p&gt;counter++&lt;/p&gt;&lt;p&gt;}&lt;/p&gt;" style="text;html=1;fillColor=none;spacing=5;spacingTop=-20;whiteSpace=wrap;overflow=hidden;rounded=0;strokeColor=#00FF00;strokeWidth=2;" vertex="1" parent="1">
          <mxGeometry x="150" y="240" width="190" height="120" as="geometry" />
        </mxCell>
        <mxCell id="xHG6-vlVzaJoteajogRv-2" value="&lt;h1&gt;Program 1&lt;/h1&gt;&lt;p&gt;{&lt;/p&gt;&lt;p&gt;counter--&lt;/p&gt;&lt;p&gt;}&lt;/p&gt;" style="text;html=1;fillColor=none;spacing=5;spacingTop=-20;whiteSpace=wrap;overflow=hidden;rounded=0;strokeWidth=2;strokeColor=#FF0080;" vertex="1" parent="1">
          <mxGeometry x="530" y="240" width="190" height="120" as="geometry" />
        </mxCell>
        <mxCell id="xHG6-vlVzaJoteajogRv-3" value="&lt;font style=&quot;font-size: 23px&quot;&gt;&lt;b&gt;shared variable&lt;br&gt;&lt;/b&gt;&lt;/font&gt;int counter = 5;" style="text;html=1;strokeColor=none;fillColor=none;align=center;verticalAlign=middle;whiteSpace=wrap;rounded=0;" vertex="1" parent="1">
          <mxGeometry x="330" y="140" width="200" height="50" as="geometry" />
        </mxCell>
        <mxCell id="xHG6-vlVzaJoteajogRv-4" value="" style="endArrow=none;html=1;strokeWidth=3;" edge="1" parent="1">
          <mxGeometry width="50" height="50" relative="1" as="geometry">
            <mxPoint x="80" y="400" as="sourcePoint" />
            <mxPoint x="800" y="400" as="targetPoint" />
          </mxGeometry>
        </mxCell>
        <mxCell id="xHG6-vlVzaJoteajogRv-5" value="&lt;h1&gt;&lt;font color=&quot;#00ff00&quot;&gt;R1&amp;lt;- counter&lt;/font&gt;&lt;/h1&gt;&lt;div style=&quot;font-size: 24px&quot;&gt;&lt;b&gt;&lt;font color=&quot;#00ff00&quot;&gt;R1&amp;lt;- R1+1&lt;/font&gt;&lt;/b&gt;&lt;/div&gt;&lt;div style=&quot;font-size: 24px&quot;&gt;&lt;b&gt;&lt;font color=&quot;#00ff00&quot;&gt;counter&amp;lt;- R1&lt;/font&gt;&lt;/b&gt;&lt;/div&gt;&lt;div style=&quot;font-size: 24px&quot;&gt;&lt;b&gt;&lt;br&gt;&lt;/b&gt;&lt;/div&gt;&lt;p style=&quot;font-size: 24px&quot;&gt;&lt;b&gt;&lt;font color=&quot;#ff0080&quot;&gt;R2&amp;lt;- counter&lt;/font&gt;&lt;/b&gt;&lt;/p&gt;&lt;p style=&quot;font-size: 24px&quot;&gt;&lt;b&gt;&lt;font color=&quot;#ff0080&quot;&gt;R2&amp;lt;- R2 - 1&lt;/font&gt;&lt;/b&gt;&lt;/p&gt;&lt;p style=&quot;font-size: 24px&quot;&gt;&lt;b&gt;&lt;font color=&quot;#ff0080&quot;&gt;counter &amp;lt;-R2&lt;/font&gt;&lt;/b&gt;&lt;/p&gt;&lt;p style=&quot;font-size: 24px&quot;&gt;&lt;b&gt;&lt;br&gt;&lt;/b&gt;&lt;/p&gt;" style="text;html=1;fillColor=none;spacing=5;spacingTop=-20;whiteSpace=wrap;overflow=hidden;rounded=0;strokeColor=#000000;" vertex="1" parent="1">
          <mxGeometry x="150" y="440" width="160" height="310" as="geometry" />
        </mxCell>
        <mxCell id="xHG6-vlVzaJoteajogRv-6" value="" style="endArrow=none;dashed=1;html=1;dashPattern=1 3;strokeWidth=2;" edge="1" parent="1">
          <mxGeometry width="50" height="50" relative="1" as="geometry">
            <mxPoint x="120" y="560" as="sourcePoint" />
            <mxPoint x="340" y="560" as="targetPoint" />
          </mxGeometry>
        </mxCell>
        <mxCell id="xHG6-vlVzaJoteajogRv-7" value="&lt;h1&gt;&lt;font color=&quot;#00ff00&quot;&gt;R1&amp;lt;- counter&lt;/font&gt;&lt;/h1&gt;&lt;div style=&quot;font-size: 24px&quot;&gt;&lt;p&gt;&lt;b&gt;&lt;font color=&quot;#ff0080&quot;&gt;R2&amp;lt;- counter&lt;/font&gt;&lt;/b&gt;&lt;/p&gt;&lt;p&gt;&lt;b&gt;&lt;font color=&quot;#ff0080&quot;&gt;R2&amp;lt;- R2 - 1&lt;/font&gt;&lt;/b&gt;&lt;/p&gt;&lt;p&gt;&lt;b&gt;&lt;font color=&quot;#ff0080&quot;&gt;counter &amp;lt;-R2&lt;/font&gt;&lt;/b&gt;&lt;/p&gt;&lt;div&gt;&lt;b&gt;&lt;font color=&quot;#ff0080&quot;&gt;&lt;br&gt;&lt;/font&gt;&lt;/b&gt;&lt;/div&gt;&lt;/div&gt;&lt;div style=&quot;font-size: 24px&quot;&gt;&lt;b&gt;&lt;font color=&quot;#00ff00&quot;&gt;R1&amp;lt;- R1+1&lt;/font&gt;&lt;/b&gt;&lt;/div&gt;&lt;div style=&quot;font-size: 24px&quot;&gt;&lt;b&gt;&lt;font color=&quot;#00ff00&quot;&gt;counter&amp;lt;- R1&lt;/font&gt;&lt;/b&gt;&lt;/div&gt;&lt;div style=&quot;font-size: 24px&quot;&gt;&lt;b&gt;&lt;br&gt;&lt;/b&gt;&lt;/div&gt;&lt;p style=&quot;font-size: 24px&quot;&gt;&lt;br&gt;&lt;/p&gt;" style="text;html=1;fillColor=none;spacing=5;spacingTop=-20;whiteSpace=wrap;overflow=hidden;rounded=0;strokeColor=#000000;" vertex="1" parent="1">
          <mxGeometry x="390" y="440" width="160" height="310" as="geometry" />
        </mxCell>
        <mxCell id="xHG6-vlVzaJoteajogRv-8" value="" style="endArrow=none;dashed=1;html=1;dashPattern=1 3;strokeWidth=2;" edge="1" parent="1">
          <mxGeometry width="50" height="50" relative="1" as="geometry">
            <mxPoint x="360" y="490" as="sourcePoint" />
            <mxPoint x="580" y="490" as="targetPoint" />
          </mxGeometry>
        </mxCell>
        <mxCell id="xHG6-vlVzaJoteajogRv-9" value="" style="endArrow=none;dashed=1;html=1;dashPattern=1 3;strokeWidth=2;" edge="1" parent="1">
          <mxGeometry width="50" height="50" relative="1" as="geometry">
            <mxPoint x="370" y="670" as="sourcePoint" />
            <mxPoint x="590" y="670" as="targetPoint" />
          </mxGeometry>
        </mxCell>
        <mxCell id="xHG6-vlVzaJoteajogRv-10" value="&lt;h1&gt;&lt;p style=&quot;font-weight: 400&quot;&gt;&lt;b&gt;&lt;font color=&quot;#ff0080&quot;&gt;R2&amp;lt;- counter&lt;/font&gt;&lt;/b&gt;&lt;/p&gt;&lt;/h1&gt;&lt;h1&gt;&lt;font color=&quot;#00ff00&quot;&gt;R1&amp;lt;- counter&lt;/font&gt;&lt;/h1&gt;&lt;div&gt;&lt;div style=&quot;font-size: 24px&quot;&gt;&lt;b&gt;&lt;font color=&quot;#00ff00&quot;&gt;R1&amp;lt;- R1+1&lt;/font&gt;&lt;/b&gt;&lt;/div&gt;&lt;div style=&quot;font-size: 24px&quot;&gt;&lt;b&gt;&lt;font color=&quot;#00ff00&quot;&gt;counter&amp;lt;- R1&lt;/font&gt;&lt;/b&gt;&lt;/div&gt;&lt;/div&gt;&lt;div style=&quot;font-size: 24px&quot;&gt;&lt;p&gt;&lt;b&gt;&lt;font color=&quot;#ff0080&quot;&gt;R2&amp;lt;- R2 - 1&lt;/font&gt;&lt;/b&gt;&lt;br&gt;&lt;/p&gt;&lt;p&gt;&lt;b&gt;&lt;font color=&quot;#ff0080&quot;&gt;counter &amp;lt;-R2&lt;/font&gt;&lt;/b&gt;&lt;/p&gt;&lt;div&gt;&lt;b&gt;&lt;font color=&quot;#ff0080&quot;&gt;&lt;br&gt;&lt;/font&gt;&lt;/b&gt;&lt;/div&gt;&lt;/div&gt;&lt;div style=&quot;font-size: 24px&quot;&gt;&lt;br&gt;&lt;/div&gt;&lt;div style=&quot;font-size: 24px&quot;&gt;&lt;b&gt;&lt;br&gt;&lt;/b&gt;&lt;/div&gt;&lt;p style=&quot;font-size: 24px&quot;&gt;&lt;br&gt;&lt;/p&gt;" style="text;html=1;fillColor=none;spacing=5;spacingTop=-20;whiteSpace=wrap;overflow=hidden;rounded=0;strokeColor=#000000;" vertex="1" parent="1">
          <mxGeometry x="627" y="440" width="160" height="310" as="geometry" />
        </mxCell>
        <mxCell id="xHG6-vlVzaJoteajogRv-11" value="" style="endArrow=none;dashed=1;html=1;dashPattern=1 3;strokeWidth=2;" edge="1" parent="1">
          <mxGeometry width="50" height="50" relative="1" as="geometry">
            <mxPoint x="597" y="490" as="sourcePoint" />
            <mxPoint x="817" y="490" as="targetPoint" />
          </mxGeometry>
        </mxCell>
        <mxCell id="xHG6-vlVzaJoteajogRv-12" value="" style="endArrow=none;dashed=1;html=1;dashPattern=1 3;strokeWidth=2;" edge="1" parent="1">
          <mxGeometry width="50" height="50" relative="1" as="geometry">
            <mxPoint x="607" y="630" as="sourcePoint" />
            <mxPoint x="827" y="630" as="targetPoint" />
          </mxGeometry>
        </mxCell>
        <mxCell id="xHG6-vlVzaJoteajogRv-13" value="&lt;font style=&quot;font-size: 18px&quot;&gt;context switch&lt;/font&gt;" style="text;html=1;align=center;verticalAlign=middle;resizable=0;points=[];autosize=1;" vertex="1" parent="1">
          <mxGeometry x="10" y="530" width="130" height="20" as="geometry" />
        </mxCell>
        <mxCell id="xHG6-vlVzaJoteajogRv-14" value="&lt;font style=&quot;font-size: 18px&quot;&gt;counter =&amp;nbsp; 5&lt;/font&gt;" style="text;html=1;align=center;verticalAlign=middle;resizable=0;points=[];autosize=1;" vertex="1" parent="1">
          <mxGeometry x="175" y="770" width="110" height="20" as="geometry" />
        </mxCell>
        <mxCell id="xHG6-vlVzaJoteajogRv-15" value="&lt;font style=&quot;font-size: 18px&quot;&gt;counter =&amp;nbsp; 6&lt;/font&gt;" style="text;html=1;align=center;verticalAlign=middle;resizable=0;points=[];autosize=1;" vertex="1" parent="1">
          <mxGeometry x="420" y="770" width="110" height="20" as="geometry" />
        </mxCell>
        <mxCell id="xHG6-vlVzaJoteajogRv-16" value="&lt;font style=&quot;font-size: 18px&quot;&gt;counter =&amp;nbsp; 4&lt;/font&gt;" style="text;html=1;align=center;verticalAlign=middle;resizable=0;points=[];autosize=1;" vertex="1" parent="1">
          <mxGeometry x="660" y="770" width="110" height="20" as="geometry" />
        </mxCell>
      </root>
    </mxGraphModel>
  </diagram>
</mxfile>
